<svg xmlns="http://www.w3.org/2000/svg" viewBox="0 0 303.27 87.23"><defs><style>.cls-1{fill:#eb008b;}.cls-2{fill:none;}.cls-3{fill:#00adee;}</style></defs><g id="Capa_2" data-name="Capa 2"><g id="Layer_1" data-name="Layer 1"><path d="M10.32,30.63V35.2A19.52,19.52,0,0,1,16.42,31a17.51,17.51,0,0,1,7-1.41,18.08,18.08,0,0,1,13.79,6.13q5.68,6.14,5.68,15.73A21.75,21.75,0,0,1,37,66.91a18.46,18.46,0,0,1-13.9,6.22,17.3,17.3,0,0,1-6.67-1.27,20.36,20.36,0,0,1-6.13-4.17V87.23H0V30.63Zm10.93,8.53a10.88,10.88,0,0,0-8.15,3.35,12.09,12.09,0,0,0-3.24,8.76A12.42,12.42,0,0,0,13.1,60.2a10.75,10.75,0,0,0,8.15,3.41,10.56,10.56,0,0,0,8-3.46,12.4,12.4,0,0,0,3.26-8.84,12.26,12.26,0,0,0-3.2-8.74A10.62,10.62,0,0,0,21.25,39.16Z"/><path d="M98.49,30.63V35.2A19.59,19.59,0,0,1,104.58,31a17.56,17.56,0,0,1,7-1.41,18.09,18.09,0,0,1,13.79,6.13q5.67,6.14,5.67,15.73a21.74,21.74,0,0,1-5.86,15.49,18.48,18.48,0,0,1-13.9,6.22,17.3,17.3,0,0,1-6.67-1.27,20.24,20.24,0,0,1-6.13-4.17V87.23H88.17V30.63Zm10.93,8.53a10.87,10.87,0,0,0-8.15,3.35A12.09,12.09,0,0,0,98,51.27a12.42,12.42,0,0,0,3.24,8.93,10.73,10.73,0,0,0,8.15,3.41,10.57,10.57,0,0,0,8-3.46,12.4,12.4,0,0,0,3.25-8.84,12.22,12.22,0,0,0-3.2-8.74A10.6,10.6,0,0,0,109.42,39.16Z"/><path d="M144.13,30.63V35.2a19.52,19.52,0,0,1,6.1-4.23,17.52,17.52,0,0,1,7-1.41A18.07,18.07,0,0,1,171,35.69q5.68,6.14,5.68,15.73a21.75,21.75,0,0,1-5.87,15.49,18.46,18.46,0,0,1-13.9,6.22,17.21,17.21,0,0,1-6.66-1.27,20.27,20.27,0,0,1-6.14-4.17V87.23H133.81V30.63Zm10.93,8.53a10.88,10.88,0,0,0-8.15,3.35,12.08,12.08,0,0,0-3.23,8.76,12.42,12.42,0,0,0,3.23,8.93,10.75,10.75,0,0,0,8.15,3.41,10.56,10.56,0,0,0,8-3.46,12.4,12.4,0,0,0,3.26-8.84,12.26,12.26,0,0,0-3.2-8.74A10.62,10.62,0,0,0,155.06,39.16Z"/><path d="M174.86,30.63h10.62l10.77,26,11.88-26h10.65l-25.95,56.6H182.09L190.61,69Z"/><path d="M259.76,39.23l-4.23,2.63a17.69,17.69,0,0,0-14.95-7.27A17.28,17.28,0,0,0,228,39.46a15.86,15.86,0,0,0-5,11.83,16.72,16.72,0,0,0,2.3,8.52,16.07,16.07,0,0,0,6.31,6.2,18.4,18.4,0,0,0,9,2.21A18.17,18.17,0,0,0,255.53,61l4.23,2.78a20,20,0,0,1-8,6.94,25.53,25.53,0,0,1-11.4,2.46,22.56,22.56,0,0,1-16.31-6.24,20.35,20.35,0,0,1-6.47-15.2,21.7,21.7,0,0,1,3-11.18,21.32,21.32,0,0,1,8.32-8,24.28,24.28,0,0,1,11.84-2.9,25.29,25.29,0,0,1,8,1.26,22.3,22.3,0,0,1,6.49,3.27A17.78,17.78,0,0,1,259.76,39.23Z"/><path class="cls-1" d="M284.82,48.76a11.31,11.31,0,0,0-16.44,0,11.8,11.8,0,0,0-3.44,8.55,12.22,12.22,0,0,0,1.56,6,11.22,11.22,0,0,0,4.24,4.32,12.08,12.08,0,0,0,11.73,0,11.12,11.12,0,0,0,4.23-4.32,12.12,12.12,0,0,0,1.57-6A11.8,11.8,0,0,0,284.82,48.76Z"/><path d="M288.05,46.45a15.59,15.59,0,0,0-22.89,0,16,16,0,0,0,.24,21.68,15.75,15.75,0,0,0,22.41,0,16,16,0,0,0,.24-21.71Zm-5.58,21.22a12.08,12.08,0,0,1-11.73,0,11.22,11.22,0,0,1-4.24-4.32,12.22,12.22,0,0,1-1.56-6,11.8,11.8,0,0,1,3.44-8.55,11.31,11.31,0,0,1,16.44,0,11.8,11.8,0,0,1,3.45,8.55,12.12,12.12,0,0,1-1.57,6A11.12,11.12,0,0,1,282.47,67.67Z"/><path d="M298.59,63.69a4.48,4.48,0,0,1,3.31,1.37,4.76,4.76,0,0,1,0,6.68,4.65,4.65,0,0,1-6.63,0,4.76,4.76,0,0,1,0-6.68A4.51,4.51,0,0,1,298.59,63.69Z"/><path class="cls-2" d="M72.51,41.26A10.32,10.32,0,0,1,73,39c.12-.39.25-.77.34-1.17a1.4,1.4,0,0,0-.86-1.65,19.48,19.48,0,0,0-7.06-1.08,19.48,19.48,0,0,0-7.06,1.08,1.4,1.4,0,0,0-.86,1.65c.09.4.22.78.34,1.17a10.32,10.32,0,0,1,.53,2.26,18.21,18.21,0,0,1-.95,6.31v1.94q0,6.08.83,8.44A7.45,7.45,0,0,0,61,61.62a7.69,7.69,0,0,0,4.55,1.31,8,8,0,0,0,4.6-1.29,7.61,7.61,0,0,0,2.81-3.79q.68-1.87.67-8V47.58A18.26,18.26,0,0,1,72.51,41.26Z"/><path class="cls-3" d="M84.35,31.52a9.08,9.08,0,0,1-.82,1.91c-.42.76-.89,1.53-1.28,2.24-2.16,3.94-5.67,9.33-8.63,11.92h0v2.29q0,6.1-.67,8a7.61,7.61,0,0,1-2.81,3.79,8,8,0,0,1-4.6,1.29A7.69,7.69,0,0,1,61,61.62,7.45,7.45,0,0,1,58.29,58q-.82-2.37-.83-8.44V47.57h0c-3-2.58-6.63-8-8.79-11.91-.39-.71-.86-1.48-1.28-2.24a9.08,9.08,0,0,1-.82-1.91c0-.12,0-.23-.07-.34V46.69q0,10.37,1.27,14.29a16.74,16.74,0,0,0,6.17,8.85Q58.33,73,65.44,73a19.69,19.69,0,0,0,10.79-2.72,16.83,16.83,0,0,0,6.43-7.8Q84.45,58.32,84.45,47V30.75h0A3,3,0,0,1,84.35,31.52Z"/><path d="M46.5,31.18v-.72A2.89,2.89,0,0,0,46.5,31.18Z"/><path d="M83.53,29a2.14,2.14,0,0,0-1.66-.21,14.25,14.25,0,0,0-2.1,1A20.9,20.9,0,0,1,73,31.39c-2.44.15-4.81-.24-6.16-1.7-.86-.94-1.29-3.51-.1-4.73,2-1.5,4.34-2.47,5-5,1-4.18-2.58-6.33-6.24-6.39h-.1c-3.66.06-7.27,2.21-6.24,6.39.63,2.55,2.92,3.52,5,5,1.19,1.22.76,3.79-.1,4.73-1.35,1.46-3.72,1.85-6.16,1.7l-.42,0a21,21,0,0,1-6.31-1.57,14.25,14.25,0,0,0-2.1-1,2.14,2.14,0,0,0-1.66.21,2,2,0,0,0-.89,1.43v.72c0,.11,0,.22.07.34a9.08,9.08,0,0,0,.82,1.91c.42.76.89,1.53,1.28,2.24,2.16,3.94,5.83,9.33,8.79,11.91h0a18.21,18.21,0,0,0,.95-6.31A10.32,10.32,0,0,0,57.88,39c-.12-.39-.25-.77-.34-1.17a1.4,1.4,0,0,1,.86-1.65,19.48,19.48,0,0,1,7.06-1.08,19.48,19.48,0,0,1,7.06,1.08,1.4,1.4,0,0,1,.86,1.65c-.09.4-.22.78-.34,1.17a10.32,10.32,0,0,0-.53,2.26,18.26,18.26,0,0,0,1.1,6.32h0c3-2.59,6.47-8,8.63-11.92.39-.71.86-1.48,1.28-2.24a9.08,9.08,0,0,0,.82-1.91,3,3,0,0,0,.1-.77A2.06,2.06,0,0,0,83.53,29Z"/><ellipse cx="75.4" cy="9.59" rx="3.35" ry="3.93"/><path d="M58.19,13.62s-5.32-4.73-9.75-1.77c0,0-.89.29-.3-1.19C48.14,10.66,53.76,7.41,58.19,13.62Z"/><path d="M42.84,4.73s12.12-2,15.85,6.43c0,0,1,1.25,1.53-1.45C60.22,9.71,55-.22,42.84,4.73Z"/><path d="M88.32,7.72S80-1.31,71.88,3c0,0-1.58.35-.31-2.08C71.57.93,81.77-3.7,88.32,7.72Z"/></g></g></svg>